<svg width="514" height="512" viewBox="0 0 514 512" fill="none" xmlns="http://www.w3.org/2000/svg">
    <rect x="1" width="512" height="512" rx="46" fill="#0F0A1A" />
    <g filter="url(#filter0_d_4_7)">
        <path
            d="M73.0586 155H95.582V315.57L93.6445 341H73.0586V155ZM184.102 274.398V276.941C184.102 286.467 182.971 295.307 180.711 303.461C178.451 311.534 175.141 318.557 170.781 324.531C166.422 330.505 161.094 335.147 154.797 338.457C148.5 341.767 141.275 343.422 133.121 343.422C124.806 343.422 117.5 342.009 111.203 339.184C104.987 336.277 99.7396 332.12 95.4609 326.711C91.1823 321.302 87.7513 314.763 85.168 307.094C82.6654 299.424 80.9297 290.786 79.9609 281.18V270.039C80.9297 260.352 82.6654 251.673 85.168 244.004C87.7513 236.335 91.1823 229.796 95.4609 224.387C99.7396 218.897 104.987 214.74 111.203 211.914C117.419 209.008 124.645 207.555 132.879 207.555C141.113 207.555 148.419 209.169 154.797 212.398C161.174 215.547 166.503 220.068 170.781 225.961C175.141 231.854 178.451 238.918 180.711 247.152C182.971 255.306 184.102 264.388 184.102 274.398ZM161.578 276.941V274.398C161.578 267.859 160.973 261.724 159.762 255.992C158.551 250.18 156.613 245.094 153.949 240.734C151.285 236.294 147.773 232.823 143.414 230.32C139.055 227.737 133.686 226.445 127.309 226.445C121.658 226.445 116.733 227.414 112.535 229.352C108.418 231.289 104.906 233.913 102 237.223C99.0938 240.452 96.7122 244.165 94.8555 248.363C93.0794 252.48 91.7474 256.759 90.8594 261.199V290.383C92.151 296.034 94.25 301.483 97.1562 306.73C100.143 311.897 104.099 316.135 109.023 319.445C114.029 322.755 120.204 324.41 127.551 324.41C133.605 324.41 138.772 323.199 143.051 320.777C147.41 318.275 150.922 314.844 153.586 310.484C156.331 306.125 158.349 301.079 159.641 295.348C160.932 289.616 161.578 283.48 161.578 276.941ZM234.961 155V341H212.438V155H234.961ZM315.004 209.977L257.848 271.129L225.879 304.309L224.062 280.453L246.949 253.086L287.637 209.977H315.004ZM294.539 341L247.797 278.516L259.422 258.535L320.938 341H294.539ZM420.598 209.977H440.941V338.215C440.941 349.759 438.6 359.608 433.918 367.762C429.236 375.915 422.697 382.091 414.301 386.289C405.986 390.568 396.379 392.707 385.48 392.707C380.96 392.707 375.632 391.98 369.496 390.527C363.441 389.155 357.467 386.773 351.574 383.383C345.762 380.073 340.878 375.592 336.922 369.941L348.668 356.621C354.158 363.241 359.889 367.842 365.863 370.426C371.918 373.009 377.892 374.301 383.785 374.301C390.889 374.301 397.025 372.969 402.191 370.305C407.358 367.641 411.354 363.685 414.18 358.438C417.086 353.271 418.539 346.893 418.539 339.305V238.797L420.598 209.977ZM330.383 276.941V274.398C330.383 264.388 331.553 255.306 333.895 247.152C336.316 238.918 339.747 231.854 344.188 225.961C348.708 220.068 354.158 215.547 360.535 212.398C366.913 209.169 374.098 207.555 382.09 207.555C390.324 207.555 397.509 209.008 403.645 211.914C409.861 214.74 415.108 218.897 419.387 224.387C423.746 229.796 427.177 236.335 429.68 244.004C432.182 251.673 433.918 260.352 434.887 270.039V281.18C433.999 290.786 432.263 299.424 429.68 307.094C427.177 314.763 423.746 321.302 419.387 326.711C415.108 332.12 409.861 336.277 403.645 339.184C397.428 342.009 390.163 343.422 381.848 343.422C374.017 343.422 366.913 341.767 360.535 338.457C354.238 335.147 348.829 330.505 344.309 324.531C339.788 318.557 336.316 311.534 333.895 303.461C331.553 295.307 330.383 286.467 330.383 276.941ZM352.785 274.398V276.941C352.785 283.48 353.431 289.616 354.723 295.348C356.095 301.079 358.154 306.125 360.898 310.484C363.724 314.844 367.316 318.275 371.676 320.777C376.035 323.199 381.242 324.41 387.297 324.41C394.724 324.41 400.859 322.836 405.703 319.688C410.547 316.539 414.382 312.382 417.207 307.215C420.113 302.048 422.374 296.438 423.988 290.383V261.199C423.1 256.759 421.728 252.48 419.871 248.363C418.095 244.165 415.754 240.452 412.848 237.223C410.022 233.913 406.51 231.289 402.312 229.352C398.115 227.414 393.19 226.445 387.539 226.445C381.404 226.445 376.116 227.737 371.676 230.32C367.316 232.823 363.724 236.294 360.898 240.734C358.154 245.094 356.095 250.18 354.723 255.992C353.431 261.724 352.785 267.859 352.785 274.398Z"
            fill="#E6E6E6" />
    </g>
    <defs>
        <filter id="filter0_d_4_7" x="69.0586" y="155" width="375.883" height="245.707"
            filterUnits="userSpaceOnUse" color-interpolation-filters="sRGB">
            <feFlood flood-opacity="0" result="BackgroundImageFix" />
            <feColorMatrix in="SourceAlpha" type="matrix"
                values="0 0 0 0 0 0 0 0 0 0 0 0 0 0 0 0 0 0 127 0" result="hardAlpha" />
            <feOffset dy="4" />
            <feGaussianBlur stdDeviation="2" />
            <feComposite in2="hardAlpha" operator="out" />
            <feColorMatrix type="matrix" values="0 0 0 0 0 0 0 0 0 0 0 0 0 0 0 0 0 0 0.25 0" />
            <feBlend mode="normal" in2="BackgroundImageFix" result="effect1_dropShadow_4_7" />
            <feBlend mode="normal" in="SourceGraphic" in2="effect1_dropShadow_4_7" result="shape" />
        </filter>
    </defs>
</svg>